<svg width="35" height="35" viewBox="0 0 35 35" fill="none" xmlns="http://www.w3.org/2000/svg">
<path d="M16.3862 22.9862C16.6887 23.2887 17.0671 23.4328 17.5214 23.4185C17.9746 23.4053 18.3525 23.2475 18.655 22.945C18.9575 22.6425 19.1088 22.2575 19.1088 21.79C19.1088 21.3225 18.9575 20.9375 18.655 20.635L17.17 19.15H22.4912C22.9587 19.15 23.3438 18.9916 23.6462 18.6748C23.9487 18.3591 24.1 17.9675 24.1 17.5C24.1 17.0325 23.9422 16.6403 23.6264 16.3235C23.3097 16.0078 22.9175 15.85 22.45 15.85H17.17L18.6963 14.3237C18.9988 14.0212 19.1434 13.6428 19.1302 13.1885C19.1159 12.7353 18.9575 12.3575 18.655 12.055C18.3525 11.7525 17.9675 11.6012 17.5 11.6012C17.0325 11.6012 16.6475 11.7525 16.345 12.055L12.055 16.345C11.725 16.675 11.56 17.06 11.56 17.5C11.56 17.94 11.725 18.325 12.055 18.655L16.3862 22.9862ZM17.5 34C15.2175 34 13.0725 33.5666 11.065 32.6998C9.0575 31.8341 7.31125 30.6588 5.82625 29.1737C4.34125 27.6887 3.1659 25.9425 2.3002 23.935C1.4334 21.9275 1 19.7825 1 17.5C1 15.2175 1.4334 13.0725 2.3002 11.065C3.1659 9.0575 4.34125 7.31125 5.82625 5.82625C7.31125 4.34125 9.0575 3.16535 11.065 2.29855C13.0725 1.43285 15.2175 1 17.5 1C19.7825 1 21.9275 1.43285 23.935 2.29855C25.9425 3.16535 27.6887 4.34125 29.1737 5.82625C30.6588 7.31125 31.8341 9.0575 32.6998 11.065C33.5666 13.0725 34 15.2175 34 17.5C34 19.7825 33.5666 21.9275 32.6998 23.935C31.8341 25.9425 30.6588 27.6887 29.1737 29.1737C27.6887 30.6588 25.9425 31.8341 23.935 32.6998C21.9275 33.5666 19.7825 34 17.5 34ZM17.5 30.7C21.1575 30.7 24.2722 29.4146 26.844 26.844C29.4146 24.2722 30.7 21.1575 30.7 17.5C30.7 13.8425 29.4146 10.7278 26.844 8.15605C24.2722 5.58535 21.1575 4.3 17.5 4.3C13.8425 4.3 10.7284 5.58535 8.1577 8.15605C5.5859 10.7278 4.3 13.8425 4.3 17.5C4.3 21.1575 5.5859 24.2722 8.1577 26.844C10.7284 29.4146 13.8425 30.7 17.5 30.7Z" fill="black" stroke="white"/>
</svg>
