<svg width="24" height="26" viewBox="0 0 24 26" fill="none" xmlns="http://www.w3.org/2000/svg">
<path fill-rule="evenodd" clip-rule="evenodd" d="M14.825 3.41624C14.825 2.75074 15.4769 2.28082 16.1083 2.49127L18.4768 3.28079C18.9225 3.42934 19.1989 3.87457 19.1342 4.33988L16.7045 21.8341C16.6375 22.3161 16.2254 22.675 15.7387 22.675H2.99995C2.62716 22.675 2.32495 22.3728 2.32495 22C2.32495 21.6272 2.62716 21.325 2.99995 21.325H14.3C14.5899 21.325 14.825 21.0899 14.825 20.8V3.41624ZM16.866 4.16686C16.526 4.05354 16.175 4.30658 16.175 4.66492V13.3013L16.5233 13.3253L17.6941 4.8952C17.7289 4.64465 17.5801 4.40491 17.3402 4.32492L16.866 4.16686Z" fill="white"/>
<path fill-rule="evenodd" clip-rule="evenodd" d="M20.0776 6.16108C20.1507 5.48543 20.8752 5.08988 21.483 5.3938L22.8862 6.09538C23.2883 6.29644 23.5008 6.74641 23.4006 7.1847L18.4531 24.4549C18.3822 24.7651 18.1043 24.9837 17.7861 24.9795L4.78609 24.8055C4.41333 24.8006 4.11519 24.4943 4.12018 24.1216C4.12517 23.7488 4.43139 23.4507 4.80415 23.4557L16.7124 23.615C16.9832 23.6186 17.2123 23.4157 17.2414 23.1464L20.0776 6.16108ZM21.7868 7.05505C21.5809 6.9521 21.3355 7.08609 21.3108 7.31497L21.0258 9.95044C21.0159 10.0426 21.0795 10.1265 21.1709 10.1418C21.2623 10.1572 21.3498 10.0986 21.3704 10.0082L21.9611 7.42406C21.995 7.27559 21.9231 7.12316 21.7868 7.05505Z" fill="white"/>
<path fill-rule="evenodd" clip-rule="evenodd" d="M20.028 6.15424C20.1057 5.44483 20.8668 5.02979 21.5053 5.34908L22.9085 6.05066C23.3312 6.26203 23.5546 6.73507 23.4493 7.19584L23.4487 7.19849L23.4487 7.19847L18.5015 24.4674C18.4249 24.7999 18.1267 25.034 17.7854 25.0294L4.78537 24.8555C4.385 24.8502 4.06478 24.5213 4.07013 24.1209C4.07549 23.7205 4.4044 23.4003 4.80477 23.4057L16.713 23.565C16.958 23.5682 17.1653 23.3847 17.1916 23.1411L17.1919 23.1382L17.192 23.1382L20.028 6.15424ZM21.4606 5.43852C20.8839 5.15019 20.1966 5.52545 20.1273 6.16645L20.127 6.16932L20.1269 6.16931L17.2909 23.1533C17.2583 23.4474 17.0078 23.6689 16.7117 23.665L4.80343 23.5057C4.45828 23.501 4.17474 23.7771 4.17013 24.1222C4.16551 24.4674 4.44156 24.7509 4.78671 24.7555L17.7867 24.9295C18.0813 24.9334 18.3387 24.731 18.4044 24.4438L18.405 24.4411L18.405 24.4411L23.3521 7.17223C23.4465 6.75683 23.2449 6.33065 22.8638 6.1401L21.4606 5.43852ZM21.7644 7.09977C21.5897 7.0124 21.3814 7.12611 21.3604 7.32034L21.0755 9.95581C21.0684 10.0216 21.1138 10.0816 21.1791 10.0925C21.2444 10.1035 21.3069 10.0616 21.3216 9.9971L21.9123 7.41291C21.9411 7.28692 21.88 7.15757 21.7644 7.09977ZM21.261 7.30959C21.2895 7.04606 21.5721 6.89179 21.8091 7.01033C21.966 7.08875 22.0489 7.26425 22.0098 7.4352L21.4191 10.0194C21.3926 10.1355 21.2801 10.2109 21.1626 10.1911C21.0451 10.1714 20.9633 10.0635 20.9761 9.94506L21.261 7.30959Z" fill="#AA60A7"/>
<path fill-rule="evenodd" clip-rule="evenodd" d="M2.55 2C2.24624 2 2 2.24624 2 2.55V17.75C2 18.0538 2.24624 18.3 2.55 18.3H11.45C11.7538 18.3 12 18.0538 12 17.75V2.55C12 2.24624 11.7538 2 11.45 2H2.55ZM0.3 0C0.134315 0 0 0.134314 0 0.3V20C0 20.1657 0.134315 20.3 0.3 20.3H13.7C13.8657 20.3 14 20.1657 14 20V0.3C14 0.134315 13.8657 0 13.7 0H0.3Z" fill="white"/>
</svg>
