<svg width="32" height="32" viewBox="0 0 32 32" fill="none" xmlns="http://www.w3.org/2000/svg">
<circle cx="16" cy="16" r="15.5" fill="url(#paint0_linear_369_130)" stroke="url(#paint1_linear_369_130)"/>
<path fill-rule="evenodd" clip-rule="evenodd" d="M17.9861 8.44526C18.5966 8.12048 19.2959 8.08081 20.0607 8.40698C20.8855 8.75874 21.3426 9.24583 21.4683 9.83386C21.592 10.4121 21.383 11.0354 20.9998 11.6377C20.2326 12.8434 18.6965 14.0769 17.2225 14.9391C17.139 14.988 17.0317 14.9599 16.9829 14.8764C16.934 14.7929 16.9621 14.6856 17.0456 14.6368C18.4996 13.7862 19.9805 12.587 20.7043 11.4496C21.0665 10.8803 21.2215 10.3545 21.1258 9.90713C21.0322 9.46957 20.6865 9.05466 19.9233 8.72919C19.2488 8.44154 18.661 8.483 18.1506 8.75452C17.6321 9.03032 17.1758 9.5533 16.7973 10.2599C16.0402 11.6732 15.6278 13.7597 15.6278 15.8111C15.6278 19.2298 17.8021 22.4306 22.1645 26.3731C22.2363 26.438 22.2419 26.5488 22.177 26.6205C22.1121 26.6923 22.0014 26.6979 21.9296 26.633C17.5581 22.6823 15.2775 19.391 15.2775 15.8111C15.2775 13.7237 15.6955 11.5749 16.4885 10.0945C16.885 9.35424 17.3836 8.76576 17.9861 8.44526Z" fill="white"/>
<path fill-rule="evenodd" clip-rule="evenodd" d="M10.522 6.28469C9.91103 6.9018 9.64818 7.87806 10.2351 8.77582C10.2881 8.85678 10.2654 8.96533 10.1844 9.01826C10.1034 9.0712 9.9949 9.04848 9.94196 8.96751C9.24637 7.90363 9.57111 6.74727 10.273 6.03825C10.9707 5.33358 12.0894 5.0291 12.9902 5.73272C13.6996 6.28686 14.2077 7.25227 14.5667 8.42448C14.9271 9.60157 15.1446 11.0123 15.2551 12.4865C15.476 15.4336 15.2712 18.6609 14.9063 20.8394C14.6636 22.6098 14.0511 24.661 13.2372 25.7972C12.8346 26.3593 12.3402 26.7545 11.776 26.6887C11.2183 26.6237 10.6954 26.1179 10.2062 25.1565C9.64854 24.0607 9.50741 23.0525 9.63262 22.1461C9.75754 21.2417 10.1459 20.4497 10.6304 19.7806C11.5633 18.4922 12.869 17.6382 13.4003 17.2907C13.4193 17.2783 13.4372 17.2666 13.4541 17.2555C13.535 17.2025 13.6436 17.225 13.6966 17.3059C13.7497 17.3868 13.7271 17.4954 13.6462 17.5484C13.6304 17.5588 13.6139 17.5696 13.5965 17.581C13.0675 17.9272 11.8082 18.7512 10.9141 19.9861C10.4538 20.6218 10.0947 21.3607 9.97962 22.194C9.86481 23.0252 9.9911 23.9615 10.5184 24.9977C10.9996 25.9432 11.448 26.2978 11.8165 26.3408C12.1784 26.383 12.5651 26.1339 12.9524 25.5932C13.7179 24.5246 14.3202 22.5384 14.5596 20.7893L14.56 20.7867L14.5604 20.7841C14.9211 18.6323 15.1246 15.4319 14.9058 12.5127C14.7964 11.0531 14.5818 9.6704 14.2317 8.52704C13.8801 7.3788 13.3992 6.49669 12.7745 6.00878C12.0567 5.44807 11.1372 5.66323 10.522 6.28469Z" fill="white"/>
<path fill-rule="evenodd" clip-rule="evenodd" d="M17.9861 8.44526C18.5966 8.12048 19.2959 8.08081 20.0607 8.40698C20.8855 8.75874 21.3426 9.24583 21.4683 9.83386C21.592 10.4121 21.383 11.0354 20.9998 11.6377C20.2326 12.8434 18.6965 14.0769 17.2225 14.9391C17.139 14.988 17.0317 14.9599 16.9829 14.8764C16.934 14.7929 16.9621 14.6856 17.0456 14.6368C18.4996 13.7862 19.9805 12.587 20.7043 11.4496C21.0665 10.8803 21.2215 10.3545 21.1258 9.90713C21.0322 9.46957 20.6865 9.05466 19.9233 8.72919C19.2488 8.44154 18.661 8.483 18.1506 8.75452C17.6321 9.03032 17.1758 9.5533 16.7973 10.2599C16.0402 11.6732 15.6278 13.7597 15.6278 15.8111C15.6278 19.2298 17.8021 22.4306 22.1645 26.3731C22.2363 26.438 22.2419 26.5488 22.177 26.6205C22.1121 26.6923 22.0014 26.6979 21.9296 26.633C17.5581 22.6823 15.2775 19.391 15.2775 15.8111C15.2775 13.7237 15.6955 11.5749 16.4885 10.0945C16.885 9.35424 17.3836 8.76576 17.9861 8.44526Z" stroke="white" stroke-linecap="round"/>
<path fill-rule="evenodd" clip-rule="evenodd" d="M10.522 6.28469C9.91103 6.9018 9.64818 7.87806 10.2351 8.77582C10.2881 8.85678 10.2654 8.96533 10.1844 9.01826C10.1034 9.0712 9.9949 9.04848 9.94196 8.96751C9.24637 7.90363 9.57111 6.74727 10.273 6.03825C10.9707 5.33358 12.0894 5.0291 12.9902 5.73272C13.6996 6.28686 14.2077 7.25227 14.5667 8.42448C14.9271 9.60157 15.1446 11.0123 15.2551 12.4865C15.476 15.4336 15.2712 18.6609 14.9063 20.8394C14.6636 22.6098 14.0511 24.661 13.2372 25.7972C12.8346 26.3593 12.3402 26.7545 11.776 26.6887C11.2183 26.6237 10.6954 26.1179 10.2062 25.1565C9.64854 24.0607 9.50741 23.0525 9.63262 22.1461C9.75754 21.2417 10.1459 20.4497 10.6304 19.7806C11.5633 18.4922 12.869 17.6382 13.4003 17.2907C13.4193 17.2783 13.4372 17.2666 13.4541 17.2555C13.535 17.2025 13.6436 17.225 13.6966 17.3059C13.7497 17.3868 13.7271 17.4954 13.6462 17.5484C13.6304 17.5588 13.6139 17.5696 13.5965 17.581C13.0675 17.9272 11.8082 18.7512 10.9141 19.9861C10.4538 20.6218 10.0947 21.3607 9.97962 22.194C9.86481 23.0252 9.9911 23.9615 10.5184 24.9977C10.9996 25.9432 11.448 26.2978 11.8165 26.3408C12.1784 26.383 12.5651 26.1339 12.9524 25.5932C13.7179 24.5246 14.3202 22.5384 14.5596 20.7893L14.56 20.7867L14.5604 20.7841C14.9211 18.6323 15.1246 15.4319 14.9058 12.5127C14.7964 11.0531 14.5818 9.6704 14.2317 8.52704C13.8801 7.3788 13.3992 6.49669 12.7745 6.00878C12.0567 5.44807 11.1372 5.66323 10.522 6.28469Z" stroke="white" stroke-linecap="round"/>
<defs>
<linearGradient id="paint0_linear_369_130" x1="16" y1="0" x2="16" y2="32" gradientUnits="userSpaceOnUse">
<stop stop-color="#A74470"/>
<stop offset="1" stop-color="#F87A6D"/>
</linearGradient>
<linearGradient id="paint1_linear_369_130" x1="16" y1="0" x2="16" y2="32" gradientUnits="userSpaceOnUse">
<stop stop-color="#9E304C"/>
<stop offset="1" stop-color="#F87A6D"/>
</linearGradient>
</defs>
</svg>
