<svg width="40" height="29" viewBox="0 0 40 29" fill="none" xmlns="http://www.w3.org/2000/svg">
<path d="M22.5238 11.4645L22.5238 11.4646C22.6911 11.9796 23.171 12.3283 23.7126 12.3283H30.2616L24.9633 16.1777C24.5252 16.496 24.3419 17.0602 24.5092 17.5752L26.533 23.8037L21.2347 19.9543C20.7966 19.636 20.2034 19.636 19.7653 19.9543L20.3531 20.7633L19.7653 19.9543L14.467 23.8037L16.4908 17.5752L15.5397 17.2662L16.4908 17.5752C16.6581 17.0602 16.4748 16.496 16.0367 16.1777L15.4717 16.9552L16.0367 16.1777L10.7384 12.3283H17.2874C17.829 12.3283 18.3089 11.9796 18.4762 11.4645L20.5 5.23607L22.5238 11.4645Z" stroke="white" stroke-width="2"/>
<path d="M7 1.61803L7.42253 2.91844L7.53478 3.26393H7.89806H9.26538L8.15919 4.06763L7.8653 4.28115L7.97756 4.62664L8.40008 5.92705L7.29389 5.12336L7 4.90983L6.70611 5.12336L5.59992 5.92705L6.02244 4.62664L6.1347 4.28115L5.84081 4.06763L4.73462 3.26393H6.10194H6.46522L6.57747 2.91844L7 1.61803Z" stroke="#F5F5F5"/>
<path d="M2.5 12L3.06129 13.7275H4.87764L3.40818 14.7951L3.96946 16.5225L2.5 15.4549L1.03054 16.5225L1.59182 14.7951L0.122359 13.7275H1.93871L2.5 12Z" fill="#F5F5F5"/>
<path d="M36 25.382L35.5775 24.0816L35.4652 23.7361H35.1019H33.7346L34.8408 22.9324L35.1347 22.7188L35.0224 22.3734L34.5999 21.0729L35.7061 21.8766L36 22.0902L36.2939 21.8766L37.4001 21.0729L36.9776 22.3734L36.8653 22.7188L37.1592 22.9324L38.2654 23.7361H36.8981H36.5348L36.4225 24.0816L36 25.382Z" stroke="#F5F5F5"/>
</svg>
