<svg width="25" height="25" viewBox="0 0 25 25" fill="none" xmlns="http://www.w3.org/2000/svg">
<g opacity="0.91">
<path d="M12.6316 20.2105H0V16.4211C0 13.0105 6.69474 11.3684 10.1053 11.3684C12 11.3684 15.0316 11.8737 17.3053 13.0105C16.2947 13.3895 15.5368 13.8947 14.7789 14.5263C13.3895 14.0211 11.7474 13.7684 10.1053 13.7684C6.31579 13.7684 2.4 15.6632 2.4 16.4211V17.8105H12.8842C12.7579 18.3158 12.6316 18.9474 12.6316 19.5789V20.2105ZM10.1053 2.52632C11.4947 2.52632 12.6316 3.66316 12.6316 5.05263C12.6316 6.4421 11.4947 7.57895 10.1053 7.57895C8.71579 7.57895 7.57895 6.4421 7.57895 5.05263C7.57895 3.66316 8.71579 2.52632 10.1053 2.52632ZM10.1053 0C7.32632 0 5.05263 2.27368 5.05263 5.05263C5.05263 7.83158 7.32632 10.1053 10.1053 10.1053C12.8842 10.1053 15.1579 7.83158 15.1579 5.05263C15.1579 2.27368 12.8842 0 10.1053 0Z" fill="#555052"/>
<path fill-rule="evenodd" clip-rule="evenodd" d="M18.7554 15.2308C18.7554 14.9759 18.962 14.7692 19.2169 14.7692H20.4755C20.7304 14.7692 20.9371 14.9759 20.9371 15.2308V15.9677C21.2439 16.0539 21.5393 16.1763 21.8171 16.3325L22.3385 15.8111C22.5187 15.6309 22.8109 15.6309 22.9912 15.8111L23.8813 16.7012C24.0615 16.8814 24.0615 17.1737 23.8813 17.3539L23.3599 17.8753C23.516 18.1531 23.6385 18.4485 23.7246 18.7553H24.4616C24.7165 18.7553 24.9231 18.9619 24.9231 19.2168V20.4755C24.9231 20.7304 24.7165 20.937 24.4616 20.937H23.7246C23.6385 21.2438 23.516 21.5392 23.3599 21.8171L23.8813 22.3384C24.0615 22.5187 24.0615 22.8109 23.8813 22.9911L22.9912 23.8812C22.8109 24.0614 22.5187 24.0614 22.3385 23.8812L21.8171 23.3598C21.5393 23.516 21.2439 23.6384 20.9371 23.7246V24.4615C20.9371 24.7164 20.7304 24.9231 20.4755 24.9231H19.2169C18.962 24.9231 18.7554 24.7164 18.7554 24.4615V23.7246C18.4486 23.6384 18.1531 23.516 17.8753 23.3598L17.354 23.8812C17.1737 24.0614 16.8815 24.0614 16.7012 23.8812L15.8112 22.9911C15.6309 22.8109 15.6309 22.5187 15.8112 22.3384L16.3325 21.8171C16.1764 21.5392 16.054 21.2438 15.9678 20.937H15.2308C14.9759 20.937 14.7693 20.7304 14.7693 20.4755V19.2168C14.7693 18.9619 14.9759 18.7553 15.2308 18.7553H15.9678C16.054 18.4485 16.1764 18.1531 16.3325 17.8753L15.8112 17.3539C15.7246 17.2673 15.676 17.1499 15.676 17.0275C15.676 16.9051 15.7246 16.7877 15.8112 16.7012L16.7012 15.8111C16.7878 15.7245 16.9052 15.6759 17.0276 15.6759C17.15 15.6759 17.2674 15.7245 17.354 15.8111L17.8753 16.3325C18.1531 16.1763 18.4486 16.0539 18.7554 15.9677V15.2308ZM22.7737 17.8087L22.4474 17.4823L22.9022 17.0275L22.6648 16.7902L22.21 17.245C22.0518 17.4032 21.8029 17.4251 21.6195 17.2971C21.2528 17.0411 20.8348 16.8678 20.3946 16.7894C20.1744 16.7501 20.014 16.5587 20.014 16.335V15.6923H19.6784V16.335C19.6784 16.5587 19.5181 16.7501 19.2979 16.7894C18.8576 16.8678 18.4396 17.0411 18.0729 17.2971C17.8895 17.4251 17.6406 17.4032 17.4824 17.245L17.0276 16.7902L16.7902 17.0275L17.245 17.4823C17.4032 17.6405 17.4252 17.8894 17.2971 18.0729C17.0411 18.4396 16.8679 18.8575 16.7894 19.2978C16.7502 19.518 16.5587 19.6784 16.3351 19.6784H15.6924V20.0139H16.3351C16.5587 20.0139 16.7502 20.1743 16.7894 20.3945C16.8679 20.8348 17.0411 21.2527 17.2971 21.6194C17.4252 21.8029 17.4032 22.0518 17.245 22.21L16.7902 22.6648L17.0276 22.9021L17.4824 22.4473C17.6406 22.2891 17.8895 22.2672 18.0729 22.3953C18.4396 22.6512 18.8576 22.8245 19.2979 22.9029C19.5181 22.9422 19.6784 23.1336 19.6784 23.3573V24H20.014V23.3573C20.014 23.1336 20.1744 22.9422 20.3946 22.9029C20.8348 22.8245 21.2528 22.6512 21.6195 22.3953C21.8029 22.2672 22.0518 22.2891 22.21 22.4473L22.6648 22.9021L22.9022 22.6648L22.4474 22.21C22.2892 22.0518 22.2672 21.8029 22.3953 21.6194C22.6513 21.2527 22.8245 20.8348 22.903 20.3945C22.9422 20.1743 23.1337 20.0139 23.3574 20.0139H24.0001V19.6784H23.3574C23.1337 19.6784 22.9422 19.518 22.903 19.2978C22.8245 18.8575 22.6513 18.4396 22.3953 18.0729L22.7737 17.8087Z" fill="#555052"/>
<path fill-rule="evenodd" clip-rule="evenodd" d="M18.704 18.7039C19.0069 18.401 19.4178 18.2308 19.8462 18.2308C20.2746 18.2308 20.6855 18.401 20.9885 18.7039C21.2914 19.0068 21.4616 19.4177 21.4616 19.8462C21.4616 20.2746 21.2914 20.6855 20.9885 20.9884C20.6855 21.2913 20.2746 21.4615 19.8462 21.4615C19.4178 21.4615 19.0069 21.2913 18.704 20.9884C18.401 20.6855 18.2308 20.2746 18.2308 19.8462C18.2308 19.4177 18.401 19.0068 18.704 18.7039ZM19.8462 19.1538C19.6626 19.1538 19.4865 19.2268 19.3567 19.3566C19.2268 19.4865 19.1539 19.6625 19.1539 19.8462C19.1539 20.0298 19.2268 20.2059 19.3567 20.3357C19.4865 20.4655 19.6626 20.5385 19.8462 20.5385C20.0298 20.5385 20.2059 20.4655 20.3357 20.3357C20.4656 20.2059 20.5385 20.0298 20.5385 19.8462C20.5385 19.6625 20.4656 19.4865 20.3357 19.3566C20.2059 19.2268 20.0298 19.1538 19.8462 19.1538Z" fill="#555052"/>
</g>
</svg>
