<svg width="30" height="40" viewBox="0 0 30 40" fill="none" xmlns="http://www.w3.org/2000/svg">
<path d="M14.6667 2.75C7.68167 2.75 2.75 7.77883 2.75 13.9682C2.75 16.7842 3.90867 18.6835 5.3625 20.4948C5.67783 20.889 5.99867 21.2685 6.32867 21.659L6.50467 21.8643C6.88967 22.3227 7.2875 22.7957 7.65967 23.2833C8.40033 24.2568 9.09517 25.3513 9.48383 26.6457C9.57902 26.9918 9.53506 27.3615 9.36135 27.6756C9.18763 27.9898 8.89794 28.2236 8.55416 28.327C8.21039 28.4304 7.8398 28.3953 7.52158 28.2291C7.20337 28.0629 6.96276 27.7789 6.85117 27.4377C6.59817 26.5943 6.12333 25.806 5.47067 24.9498C5.12616 24.5045 4.77037 24.0681 4.40367 23.6408L4.235 23.4392C3.905 23.0505 3.55667 22.6398 3.2175 22.2163C1.595 20.196 0 17.6935 0 13.9663C0 6.1655 6.26083 0 14.6667 0C23.0725 0 29.3333 6.16367 29.3333 13.9682C29.3333 17.6935 27.7383 20.196 26.1158 22.2182C25.7767 22.6398 25.4283 23.0505 25.0983 23.441L24.9297 23.6408C24.5447 24.0955 24.1872 24.5227 23.8627 24.9498C23.21 25.806 22.7352 26.5962 22.4822 27.4377C22.3652 27.7724 22.1235 28.0491 21.8075 28.2101C21.4916 28.3711 21.1257 28.404 20.7861 28.3019C20.4465 28.1998 20.1593 27.9706 19.9845 27.6621C19.8097 27.3535 19.7607 26.9895 19.8477 26.6457C20.2382 25.3513 20.933 24.2568 21.6755 23.2833C22.0458 22.7957 22.4437 22.3227 22.8305 21.8643L23.0047 21.659C23.3347 21.2685 23.6555 20.889 23.9708 20.4967C25.4247 18.6817 26.5833 16.7842 26.5833 13.9682C26.5833 7.77883 21.6517 2.75 14.6667 2.75ZM8.70833 31.1667H20.625C20.9897 31.1667 21.3394 31.3115 21.5973 31.5694C21.8551 31.8273 22 32.177 22 32.5417C22 32.9063 21.8551 33.2561 21.5973 33.5139C21.3394 33.7718 20.9897 33.9167 20.625 33.9167H8.70833C8.34366 33.9167 7.99392 33.7718 7.73606 33.5139C7.4782 33.2561 7.33333 32.9063 7.33333 32.5417C7.33333 32.177 7.4782 31.8273 7.73606 31.5694C7.99392 31.3115 8.34366 31.1667 8.70833 31.1667ZM10.0833 38.0417C10.0833 37.677 10.2282 37.3273 10.4861 37.0694C10.7439 36.8115 11.0937 36.6667 11.4583 36.6667H17.875C18.2397 36.6667 18.5894 36.8115 18.8473 37.0694C19.1051 37.3273 19.25 37.677 19.25 38.0417C19.25 38.4063 19.1051 38.7561 18.8473 39.0139C18.5894 39.2718 18.2397 39.4167 17.875 39.4167H11.4583C11.0937 39.4167 10.7439 39.2718 10.4861 39.0139C10.2282 38.7561 10.0833 38.4063 10.0833 38.0417Z" fill="white"/>
</svg>
