<svg width="32" height="32" viewBox="0 0 32 32" fill="none" xmlns="http://www.w3.org/2000/svg">
<circle cx="16" cy="16" r="15.5" fill="white" stroke="url(#paint0_linear_369_129)"/>
<path fill-rule="evenodd" clip-rule="evenodd" d="M17.9866 8.44573C18.5972 8.12095 19.2965 8.08128 20.0613 8.40745C20.8861 8.75921 21.3431 9.2463 21.4689 9.83433C21.5926 10.4126 21.3836 11.0359 21.0003 11.6382C20.2331 12.8439 18.6971 14.0774 17.223 14.9396C17.1396 14.9884 17.0323 14.9603 16.9834 14.8768C16.9346 14.7934 16.9627 14.6861 17.0462 14.6372C18.5002 13.7867 19.9811 12.5875 20.7048 11.4501C21.0671 10.8808 21.222 10.3549 21.1264 9.9076C21.0328 9.47005 20.687 9.05513 19.9239 8.72966C19.2494 8.44201 18.6616 8.48347 18.1511 8.75499C17.6327 9.03079 17.1763 9.55377 16.7978 10.2604C16.0408 11.6737 15.6284 13.7602 15.6284 15.8116C15.6284 19.2302 17.8026 22.4311 22.165 26.3736C22.2368 26.4385 22.2424 26.5492 22.1776 26.621C22.1127 26.6927 22.0019 26.6983 21.9302 26.6335C17.5587 22.6827 15.2781 19.3915 15.2781 15.8116C15.2781 13.7242 15.696 11.5754 16.489 10.095C16.8855 9.35471 17.3841 8.76623 17.9866 8.44573Z" fill="white"/>
<path fill-rule="evenodd" clip-rule="evenodd" d="M10.5225 6.28517C9.91158 6.90228 9.64873 7.87853 10.2357 8.77629C10.2886 8.85726 10.2659 8.9658 10.185 9.01873C10.104 9.07167 9.99544 9.04895 9.94251 8.96798C9.24692 7.9041 9.57166 6.74774 10.2736 6.03872C10.9712 5.33405 12.0899 5.02958 12.9907 5.73319C13.7001 6.28733 14.2083 7.25274 14.5672 8.42495C14.9277 9.60204 15.1451 11.0127 15.2556 12.4869C15.4766 15.4341 15.2717 18.6614 14.9068 20.8399C14.6642 22.6102 14.0516 24.6614 13.2377 25.7977C12.8351 26.3597 12.3408 26.755 11.7765 26.6892C11.2189 26.6241 10.696 26.1183 10.2068 25.157C9.64909 24.0612 9.50796 23.053 9.63317 22.1465C9.75809 21.2422 10.1465 20.4502 10.6309 19.7811C11.5638 18.4927 12.8695 17.6387 13.4009 17.2912C13.4198 17.2788 13.4377 17.2671 13.4546 17.256C13.5355 17.2029 13.6441 17.2255 13.6972 17.3064C13.7502 17.3873 13.7276 17.4958 13.6467 17.5489C13.631 17.5592 13.6144 17.5701 13.597 17.5815C13.068 17.9276 11.8088 18.7517 10.9147 19.9865C10.4544 20.6222 10.0953 21.3611 9.98017 22.1945C9.86536 23.0256 9.99165 23.9619 10.519 24.9981C11.0001 25.9436 11.4486 26.2982 11.8171 26.3412C12.179 26.3834 12.5657 26.1343 12.953 25.5937C13.7184 24.525 14.3207 22.5388 14.5601 20.7898L14.5605 20.7872L14.5609 20.7846C14.9216 18.6328 15.1252 15.4323 14.9063 12.5131C14.7969 11.0535 14.5824 9.67087 14.2323 8.52751C13.8807 7.37927 13.3997 6.49716 12.7751 6.00925C12.0572 5.44855 11.1378 5.66371 10.5225 6.28517Z" fill="white"/>
<path fill-rule="evenodd" clip-rule="evenodd" d="M17.9866 8.44573C18.5972 8.12095 19.2965 8.08128 20.0613 8.40745C20.8861 8.75921 21.3431 9.2463 21.4689 9.83433C21.5926 10.4126 21.3836 11.0359 21.0003 11.6382C20.2331 12.8439 18.6971 14.0774 17.223 14.9396C17.1396 14.9884 17.0323 14.9603 16.9834 14.8768C16.9346 14.7934 16.9627 14.6861 17.0462 14.6372C18.5002 13.7867 19.9811 12.5875 20.7048 11.4501C21.0671 10.8808 21.222 10.3549 21.1264 9.9076C21.0328 9.47005 20.687 9.05513 19.9239 8.72966C19.2494 8.44201 18.6616 8.48347 18.1511 8.75499C17.6327 9.03079 17.1763 9.55377 16.7978 10.2604C16.0408 11.6737 15.6284 13.7602 15.6284 15.8116C15.6284 19.2302 17.8026 22.4311 22.165 26.3736C22.2368 26.4385 22.2424 26.5492 22.1776 26.621C22.1127 26.6927 22.0019 26.6983 21.9302 26.6335C17.5587 22.6827 15.2781 19.3915 15.2781 15.8116C15.2781 13.7242 15.696 11.5754 16.489 10.095C16.8855 9.35471 17.3841 8.76623 17.9866 8.44573Z" stroke="url(#paint1_linear_369_129)" stroke-linecap="round"/>
<path fill-rule="evenodd" clip-rule="evenodd" d="M10.5225 6.28517C9.91158 6.90228 9.64873 7.87853 10.2357 8.77629C10.2886 8.85726 10.2659 8.9658 10.185 9.01873C10.104 9.07167 9.99544 9.04895 9.94251 8.96798C9.24692 7.9041 9.57166 6.74774 10.2736 6.03872C10.9712 5.33405 12.0899 5.02958 12.9907 5.73319C13.7001 6.28733 14.2083 7.25274 14.5672 8.42495C14.9277 9.60204 15.1451 11.0127 15.2556 12.4869C15.4766 15.4341 15.2717 18.6614 14.9068 20.8399C14.6642 22.6102 14.0516 24.6614 13.2377 25.7977C12.8351 26.3597 12.3408 26.755 11.7765 26.6892C11.2189 26.6241 10.696 26.1183 10.2068 25.157C9.64909 24.0612 9.50796 23.053 9.63317 22.1465C9.75809 21.2422 10.1465 20.4502 10.6309 19.7811C11.5638 18.4927 12.8695 17.6387 13.4009 17.2912C13.4198 17.2788 13.4377 17.2671 13.4546 17.256C13.5355 17.2029 13.6441 17.2255 13.6972 17.3064C13.7502 17.3873 13.7276 17.4958 13.6467 17.5489C13.631 17.5592 13.6144 17.5701 13.597 17.5815C13.068 17.9276 11.8088 18.7517 10.9147 19.9865C10.4544 20.6222 10.0953 21.3611 9.98017 22.1945C9.86536 23.0256 9.99165 23.9619 10.519 24.9981C11.0001 25.9436 11.4486 26.2982 11.8171 26.3412C12.179 26.3834 12.5657 26.1343 12.953 25.5937C13.7184 24.525 14.3207 22.5388 14.5601 20.7898L14.5605 20.7872L14.5609 20.7846C14.9216 18.6328 15.1252 15.4323 14.9063 12.5131C14.7969 11.0535 14.5824 9.67087 14.2323 8.52751C13.8807 7.37927 13.3997 6.49716 12.7751 6.00925C12.0572 5.44855 11.1378 5.66371 10.5225 6.28517Z" stroke="url(#paint2_linear_369_129)" stroke-linecap="round"/>
<defs>
<linearGradient id="paint0_linear_369_129" x1="16" y1="0" x2="16" y2="32" gradientUnits="userSpaceOnUse">
<stop stop-color="#9E304C"/>
<stop offset="1" stop-color="#F87A6D"/>
</linearGradient>
<linearGradient id="paint1_linear_369_129" x1="15.8894" y1="5.3338" x2="15.8894" y2="26.6963" gradientUnits="userSpaceOnUse">
<stop stop-color="#9E304C"/>
<stop offset="1" stop-color="#F87A6D"/>
</linearGradient>
<linearGradient id="paint2_linear_369_129" x1="15.8894" y1="5.3338" x2="15.8894" y2="26.6963" gradientUnits="userSpaceOnUse">
<stop stop-color="#9E304C"/>
<stop offset="1" stop-color="#F87A6D"/>
</linearGradient>
</defs>
</svg>
