<svg width="27" height="27" viewBox="0 0 27 27" fill="none" xmlns="http://www.w3.org/2000/svg">
<path fill-rule="evenodd" clip-rule="evenodd" d="M2 18.9947C2 19.1604 2.13432 19.2947 2.3 19.2947H12.9068C13.0983 19.2947 13.2403 19.4716 13.2063 19.66C13.1355 20.0528 13.0842 20.4802 13.0842 20.9105V20.9947C13.0842 21.1604 12.9499 21.2947 12.7842 21.2947H0.3C0.134315 21.2947 0 21.1604 0 20.9947V17.4895C0 16.6741 0.397562 15.9443 1.09531 15.2951C1.79564 14.6435 2.7804 14.0916 3.89921 13.6458C6.13717 12.754 8.83615 12.3158 10.6474 12.3158C12.3381 12.3158 14.8858 12.6959 17.087 13.5296C17.329 13.6213 17.3373 13.9582 17.1118 14.0852C16.6354 14.3536 16.2033 14.6564 15.7811 14.9923C15.6997 15.0571 15.5911 15.0763 15.4924 15.0436C14.0209 14.5568 12.3309 14.3158 10.6474 14.3158C8.54926 14.3158 6.42501 14.8392 4.82489 15.4654C4.02481 15.7784 3.34551 16.1212 2.86056 16.4445C2.61902 16.6055 2.4159 16.7681 2.26959 16.9271C2.13397 17.0744 2 17.2687 2 17.4895V18.9947ZM13.6842 5.17368C13.6842 3.50274 12.3183 2.13684 10.6474 2.13684C8.97642 2.13684 7.61053 3.50274 7.61053 5.17368C7.61053 6.84463 8.97642 8.21053 10.6474 8.21053C12.3183 8.21053 13.6842 6.84463 13.6842 5.17368ZM5.47368 5.17368C5.47368 2.32884 7.80253 0 10.6474 0C13.4922 0 15.8211 2.32884 15.8211 5.17368C15.8211 8.01853 13.4922 10.3474 10.6474 10.3474C7.80253 10.3474 5.47368 8.01853 5.47368 5.17368Z" fill="#F5F5F5"/>
<path fill-rule="evenodd" clip-rule="evenodd" d="M20.0183 16.2C20.0183 15.9239 20.2421 15.7 20.5183 15.7H21.8818C22.1579 15.7 22.3818 15.9239 22.3818 16.2V16.9984C22.7141 17.0917 23.0342 17.2244 23.3352 17.3935L23.9 16.8287C24.0952 16.6334 24.4118 16.6334 24.6071 16.8287L25.5713 17.793C25.7666 17.9882 25.7666 18.3048 25.5713 18.5001L25.0065 19.0649C25.1756 19.3658 25.3083 19.6859 25.4016 20.0183H26.2C26.4762 20.0183 26.7 20.2421 26.7 20.5183V21.8818C26.7 22.1579 26.4762 22.3818 26.2 22.3818H25.4016C25.3083 22.7141 25.1756 23.0342 25.0065 23.3352L25.5713 23.9C25.7666 24.0952 25.7666 24.4118 25.5713 24.6071L24.6071 25.5713C24.4118 25.7666 24.0952 25.7666 23.9 25.5713L23.3352 25.0065C23.0342 25.1756 22.7141 25.3083 22.3818 25.4016V26.2C22.3818 26.4762 22.1579 26.7 21.8818 26.7H20.5183C20.2421 26.7 20.0183 26.4762 20.0183 26.2V25.4016C19.6859 25.3083 19.3658 25.1756 19.0649 25.0065L18.5001 25.5713C18.3048 25.7666 17.9882 25.7666 17.793 25.5713L16.8287 24.6071C16.6334 24.4118 16.6334 24.0952 16.8287 23.9L17.3935 23.3352C17.2244 23.0342 17.0917 22.7141 16.9984 22.3818H16.2C15.9239 22.3818 15.7 22.1579 15.7 21.8818V20.5183C15.7 20.2421 15.9239 20.0183 16.2 20.0183H16.9984C17.0917 19.6859 17.2244 19.3658 17.3935 19.0649L16.8287 18.5001C16.7349 18.4063 16.6823 18.2791 16.6823 18.1465C16.6823 18.0139 16.7349 17.8867 16.8287 17.793L17.793 16.8287C17.8867 16.7349 18.0139 16.6823 18.1465 16.6823C18.2791 16.6823 18.4063 16.7349 18.5001 16.8287L19.0649 17.3935C19.3658 17.2244 19.6859 17.0917 20.0183 16.9984V16.2ZM24.3715 18.9928L24.018 18.6392L24.5107 18.1465L24.2535 17.8894L23.7608 18.3821C23.5894 18.5535 23.3198 18.5772 23.121 18.4385C22.7238 18.1612 22.271 17.9735 21.794 17.8885C21.5555 17.846 21.3818 17.6386 21.3818 17.3963V16.7H21.0183V17.3963C21.0183 17.6386 20.8445 17.846 20.606 17.8885C20.129 17.9735 19.6762 18.1612 19.279 18.4385C19.0802 18.5772 18.8106 18.5535 18.6392 18.3821L18.1465 17.8894L17.8894 18.1465L18.3821 18.6392C18.5535 18.8106 18.5772 19.0802 18.4385 19.279C18.1612 19.6762 17.9735 20.129 17.8885 20.606C17.846 20.8445 17.6386 21.0183 17.3963 21.0183H16.7V21.3818H17.3963C17.6386 21.3818 17.846 21.5555 17.8885 21.794C17.9735 22.271 18.1612 22.7238 18.4385 23.121C18.5772 23.3198 18.5535 23.5894 18.3821 23.7608L17.8894 24.2535L18.1465 24.5107L18.6392 24.018C18.8106 23.8466 19.0802 23.8228 19.279 23.9615C19.6762 24.2389 20.129 24.4265 20.606 24.5115C20.8445 24.554 21.0183 24.7615 21.0183 25.0038V25.7H21.3818V25.0038C21.3818 24.7615 21.5555 24.554 21.794 24.5115C22.271 24.4265 22.7238 24.2389 23.121 23.9615C23.3198 23.8228 23.5894 23.8466 23.7608 24.018L24.2535 24.5107L24.5107 24.2535L24.018 23.7608C23.8466 23.5894 23.8228 23.3198 23.9615 23.121C24.2389 22.7238 24.4265 22.271 24.5115 21.794C24.554 21.5555 24.7615 21.3818 25.0038 21.3818H25.7V21.0183H25.0038C24.7615 21.0183 24.554 20.8445 24.5115 20.606C24.4265 20.129 24.2389 19.6762 23.9615 19.279L24.3715 18.9928Z" fill="#F5F5F5"/>
<path fill-rule="evenodd" clip-rule="evenodd" d="M19.9626 19.9626C20.2908 19.6344 20.7359 19.45 21.2 19.45C21.6641 19.45 22.1093 19.6344 22.4374 19.9626C22.7656 20.2908 22.95 20.7359 22.95 21.2C22.95 21.6641 22.7656 22.1093 22.4374 22.4374C22.1093 22.7656 21.6641 22.95 21.2 22.95C20.7359 22.95 20.2908 22.7656 19.9626 22.4374C19.6344 22.1093 19.45 21.6641 19.45 21.2C19.45 20.7359 19.6344 20.2908 19.9626 19.9626ZM21.2 20.45C21.0011 20.45 20.8103 20.529 20.6697 20.6697C20.529 20.8103 20.45 21.0011 20.45 21.2C20.45 21.3989 20.529 21.5897 20.6697 21.7303C20.8103 21.871 21.0011 21.95 21.2 21.95C21.3989 21.95 21.5897 21.871 21.7303 21.7303C21.871 21.5897 21.95 21.3989 21.95 21.2C21.95 21.0011 21.871 20.8103 21.7303 20.6697C21.5897 20.529 21.3989 20.45 21.2 20.45Z" fill="#F5F5F5"/>
</svg>
