<svg width="20" height="23" viewBox="0 0 20 23" fill="none" xmlns="http://www.w3.org/2000/svg">
<path d="M8.75 17.5H11.25V11.25H8.75V17.5ZM10 8.75C10.3542 8.75 10.6513 8.63 10.8913 8.39C11.1304 8.15083 11.25 7.85417 11.25 7.5C11.25 7.14583 11.1304 6.84875 10.8913 6.60875C10.6513 6.36958 10.3542 6.25 10 6.25C9.64583 6.25 9.34917 6.36958 9.11 6.60875C8.87 6.84875 8.75 7.14583 8.75 7.5C8.75 7.85417 8.87 8.15083 9.11 8.39C9.34917 8.63 9.64583 8.75 10 8.75ZM0 22.5V7.5L10 0L20 7.5V22.5H0ZM2.5 20H17.5V8.75L10 3.125L2.5 8.75V20Z" fill="black"/>
</svg>
