<svg width="88" height="147" viewBox="0 0 88 147" fill="none" xmlns="http://www.w3.org/2000/svg">
<path fill-rule="evenodd" clip-rule="evenodd" d="M5.21349 5.14006C10.2164 0.0866468 18.4964 -2.30417 25.2507 2.9718C30.3454 6.95132 33.8689 13.7642 36.3135 21.7473C38.7632 29.747 40.2354 39.278 40.9882 49.189C42.3701 43.0889 44.3275 37.4503 46.8414 32.7571C49.579 27.6464 53.0945 23.4381 57.4665 21.1125C61.9532 18.7259 67.0797 18.4656 72.5679 20.8062C78.3521 23.2729 81.8474 26.8229 82.8152 31.3473C83.7532 35.7321 82.143 40.2944 79.484 44.4731C74.1548 52.8482 63.6049 61.2823 53.6044 67.1322C52.4162 67.8272 50.8896 67.4274 50.1946 66.2393C49.4996 65.0511 49.8994 63.5245 51.0875 62.8295C60.8031 57.1463 70.5682 49.1996 75.2785 41.797C77.6389 38.0877 78.4802 34.9117 77.9408 32.39C77.431 30.0067 75.5189 27.4837 70.6125 25.3913C66.4095 23.5989 62.8694 23.8845 59.8075 25.5133C56.6311 27.203 53.7165 30.479 51.2355 35.1108C46.2725 44.3761 43.5164 58.1922 43.5164 71.8705C43.5164 94.2858 57.7584 115.5 87.0992 142.017C88.1205 142.94 88.2002 144.516 87.2772 145.537C86.3543 146.558 84.7783 146.638 83.757 145.715C60.7552 124.927 46.1086 106.657 40.7871 87.889C40.2639 94.5264 39.5224 100.673 38.6432 105.927C36.996 117.925 32.8336 131.975 27.1733 139.877C24.4066 143.74 20.6741 146.952 16.1145 146.42C11.6502 145.899 7.85019 141.926 4.52642 135.394C0.65746 127.792 -0.348533 120.734 0.533575 114.348C1.41151 107.992 4.13647 102.46 7.48937 97.8295C13.9133 88.9575 22.8689 83.1002 26.4627 80.7497L26.4858 80.7346C26.5651 80.6828 26.6415 80.6328 26.7151 80.5846C26.7599 80.5553 26.8036 80.5266 26.8464 80.4986C27.9974 79.7437 29.5424 80.0648 30.2974 81.2158C31.0523 82.3668 30.7311 83.9119 29.5801 84.6668L29.2442 84.8867C25.6808 87.2186 17.391 92.654 11.5268 100.753C8.51789 104.908 6.20967 109.685 5.47139 115.03C4.73728 120.345 5.53204 126.38 8.96894 133.134C12.1782 139.44 14.9185 141.262 16.692 141.469C18.3723 141.665 20.5726 140.532 23.121 136.975C28.0923 130.034 32.1086 116.909 33.7097 105.214L33.7147 105.177L33.7209 105.14C36.1327 90.7505 37.4976 69.3058 36.0323 49.758C35.2997 39.9846 33.8661 30.7792 31.5473 23.2068C29.2072 15.5648 26.0705 9.9373 22.1823 6.90011C18.0308 3.65733 12.5859 4.77835 8.75585 8.64703C4.98484 12.4561 3.44384 18.3547 6.99034 23.7791C7.7436 24.9312 7.42028 26.4757 6.26819 27.229C5.11609 27.9823 3.5715 27.6589 2.81824 26.5068C-2.27369 18.7188 0.147388 10.2573 5.21349 5.14006Z" fill="white"/>
</svg>
