<svg width="26" height="22" viewBox="0 0 26 22" fill="none" xmlns="http://www.w3.org/2000/svg">
<path fill-rule="evenodd" clip-rule="evenodd" d="M2.92365 8.80144C2.55121 8.70844 2.32468 8.33112 2.41768 7.95868C2.97592 5.72316 4.28313 3.74633 6.12162 2.3574C7.96011 0.968465 10.2189 0.251252 12.5219 0.325196C14.8249 0.399139 17.033 1.25978 18.7786 2.76379C20.1272 3.92571 21.1368 5.41744 21.7171 7.08106L23.4174 5.17517C23.6357 4.85941 24.0686 4.78039 24.3844 4.99869C24.7002 5.21699 24.7792 5.64994 24.5609 5.9657L22.0036 9.11119C21.7853 9.42696 21.3524 9.50597 21.0366 9.28767L16.891 6.7304C16.5752 6.5121 16.4962 6.07916 16.7145 5.76339C16.9328 5.44762 17.3658 5.36861 17.6815 5.58691L20.2062 7.02358C19.6887 5.79675 18.8928 4.69709 17.8713 3.81694C16.3664 2.52033 14.4627 1.77837 12.4773 1.71462C10.4919 1.65088 8.54456 2.26919 6.95959 3.46659C5.37462 4.664 4.24767 6.36822 3.76641 8.29547C3.67341 8.66791 3.29609 8.89444 2.92365 8.80144Z" fill="#70686B"/>
<path fill-rule="evenodd" clip-rule="evenodd" d="M2.84612 9.11191C2.30221 8.97608 1.97139 8.42506 2.10721 7.88115C2.68317 5.57467 4.03188 3.53509 5.92873 2.10207C7.82557 0.669048 10.1561 -0.070931 12.5322 0.00536049C14.9083 0.0816506 17.1865 0.969608 18.9875 2.52136C20.242 3.60218 21.2121 4.95958 21.8297 6.47417L23.1666 4.97555C23.4892 4.52916 24.1112 4.42078 24.5664 4.73547C25.0275 5.05427 25.1429 5.68653 24.8241 6.14767L24.817 6.15791L22.259 9.30429C21.9396 9.75367 21.3189 9.86589 20.8621 9.55604L16.7159 6.99837L16.709 6.99362C16.2479 6.67482 16.1325 6.04256 16.4513 5.58142C16.7672 5.12448 17.3909 5.00702 17.8509 5.31508L19.4549 6.22786C18.9873 5.41487 18.3832 4.68039 17.6624 4.05937C16.2129 2.8105 14.3793 2.09586 12.467 2.03446C10.5547 1.97306 8.67909 2.5686 7.15248 3.72192C5.62587 4.87523 4.54041 6.51671 4.07688 8.373C3.94105 8.91691 3.39003 9.24773 2.84612 9.11191ZM2.72815 8.0362C2.67796 8.23718 2.8002 8.44079 3.00118 8.49097C3.20215 8.54116 3.40576 8.41892 3.45594 8.21794C3.95492 6.21973 5.12337 4.45276 6.7667 3.21126C8.41002 1.96977 10.4291 1.32869 12.4876 1.39479C14.5461 1.46088 16.5198 2.23016 18.0801 3.57451C19.1393 4.48707 19.9645 5.62723 20.501 6.89921L20.8675 7.76809L17.5111 5.8581L17.4996 5.85013C17.3292 5.73233 17.0955 5.77497 16.9777 5.94536C16.8613 6.11381 16.9016 6.34405 17.0672 6.46309L21.2117 9.0197L21.2186 9.02445C21.389 9.14225 21.6226 9.09961 21.7404 8.92922L21.7475 8.91898L24.3035 5.77495C24.414 5.6054 24.3699 5.3777 24.2024 5.26191C24.032 5.14412 23.7984 5.18675 23.6806 5.35715L23.6693 5.37343L21.594 7.69975L21.4149 7.18645C20.8531 5.57562 19.8755 4.13125 18.5698 3.00621C16.8796 1.54995 14.7415 0.716626 12.5116 0.64503C10.2818 0.573434 8.09464 1.26788 6.31451 2.61272C4.53438 3.95757 3.26866 5.87164 2.72815 8.0362Z" fill="#70686B"/>
<path fill-rule="evenodd" clip-rule="evenodd" d="M22.0797 12.6496C22.4521 12.7426 22.6786 13.1199 22.5856 13.4923C22.0274 15.7279 20.7202 17.7047 18.8817 19.0936C17.0432 20.4826 14.7844 21.1998 12.4814 21.1258C10.1784 21.0519 7.97028 20.1912 6.22467 18.6872C4.87611 17.5253 3.86648 16.0336 3.28623 14.37L1.58593 16.2759C1.36763 16.5916 0.93469 16.6706 0.618924 16.4523C0.303159 16.234 0.224145 15.8011 0.442444 15.4853L2.99972 12.3398C3.21801 12.0241 3.65096 11.9451 3.96672 12.1634L8.11232 14.7206C8.42808 14.9389 8.5071 15.3719 8.2888 15.6876C8.0705 16.0034 7.63756 16.0824 7.32179 15.8641L4.79714 14.4274C5.3146 15.6543 6.11054 16.7539 7.13207 17.6341C8.63696 18.9307 10.5406 19.6727 12.526 19.7364C14.5114 19.8001 16.4588 19.1818 18.0437 17.9844C19.6287 16.787 20.7556 15.0828 21.2369 13.1556C21.3299 12.7831 21.7072 12.5566 22.0797 12.6496Z" fill="#70686B"/>
<path fill-rule="evenodd" clip-rule="evenodd" d="M22.1572 12.3391C22.7011 12.4749 23.0319 13.026 22.8961 13.5699C22.3201 15.8764 20.9714 17.9159 19.0746 19.349C17.1777 20.782 14.8472 21.522 12.4711 21.4457C10.0951 21.3694 7.81681 20.4814 6.0158 18.9297C4.76137 17.8489 3.79119 16.4914 3.17364 14.9769L1.83668 16.4755C1.51409 16.9219 0.89215 17.0302 0.436951 16.7156C-0.024188 16.3968 -0.139578 15.7645 0.179222 15.3034L0.186298 15.2931L2.74429 12.1467C3.06376 11.6974 3.68445 11.5851 4.14118 11.895L8.28743 14.4527L8.29429 14.4574C8.75543 14.7762 8.87082 15.4085 8.55202 15.8696C8.23613 16.3265 7.61245 16.444 7.15247 16.1359L5.54845 15.2232C6.01599 16.0362 6.62017 16.7706 7.34094 17.3917C8.79043 18.6405 10.624 19.3552 12.5363 19.4166C14.4486 19.478 16.3242 18.8824 17.8508 17.7291C19.3774 16.5758 20.4629 14.9343 20.9264 13.078C21.0623 12.5341 21.6133 12.2033 22.1572 12.3391ZM22.2752 13.4148C22.3254 13.2138 22.2031 13.0102 22.0021 12.9601C21.8012 12.9099 21.5976 13.0321 21.5474 13.2331C21.0484 15.2313 19.8799 16.9983 18.2366 18.2398C16.5933 19.4813 14.5743 20.1223 12.5158 20.0562C10.4572 19.9901 8.4835 19.2209 6.92319 17.8765C5.86405 16.964 5.0388 15.8238 4.50229 14.5518L4.13581 13.6829L7.49224 15.5929L7.50377 15.6009C7.67416 15.7187 7.90778 15.6761 8.02558 15.5057C8.14203 15.3372 8.10169 15.107 7.93614 14.9879L3.79162 12.4313L3.78475 12.4266C3.61436 12.3088 3.38073 12.3514 3.26294 12.5218L3.25586 12.532L0.699775 15.6761C0.589361 15.8456 0.633412 16.0733 0.800897 16.1891C0.97129 16.3069 1.20491 16.2643 1.32271 16.0939L1.33397 16.0776L3.40934 13.7513L3.58838 14.2646C4.15022 15.8754 5.1278 17.3198 6.43355 18.4448C8.12374 19.9011 10.2618 20.7344 12.4917 20.806C14.7216 20.8776 16.9087 20.1831 18.6888 18.8383C20.4689 17.4935 21.7347 15.5794 22.2752 13.4148Z" fill="#70686B"/>
</svg>
